<svg width="35" height="35" viewBox="0 0 35 35" fill="none" xmlns="http://www.w3.org/2000/svg">
<g clip-path="url(#clip0_338_1656)">
<path d="M26.4361 4.82568H3.19559C2.34883 4.82626 1.53694 5.16297 0.938291 5.76182C0.339646 6.36067 0.00321938 7.17268 0.00292969 8.01943V31.2605C0.00307468 32.1072 0.339489 32.9192 0.938197 33.5179C1.5369 34.1166 2.34889 34.453 3.19559 34.4532H26.4361C27.2829 34.453 28.095 34.1165 28.6937 33.5177C29.2924 32.9189 29.6288 32.1068 29.6288 31.26V8.01943C29.6286 7.17263 29.2923 6.36054 28.6936 5.76166C28.0949 5.16278 27.2829 4.82612 26.4361 4.82568ZM27.9236 29.6866C27.9238 30.0577 27.8508 30.4251 27.7089 30.768C27.5671 31.1108 27.359 31.4224 27.0967 31.6848C26.8344 31.9473 26.523 32.1555 26.1802 32.2976C25.8375 32.4396 25.4701 32.5128 25.099 32.5129H4.53543C4.16424 32.513 3.79666 32.44 3.4537 32.298C3.11074 32.156 2.79912 31.9479 2.53665 31.6854C2.27418 31.4229 2.066 31.1113 1.92402 30.7684C1.78204 30.4254 1.70904 30.0578 1.70918 29.6866V9.12357C1.70918 8.75245 1.78229 8.38496 1.92433 8.0421C2.06637 7.69923 2.27455 7.3877 2.537 7.12531C2.79945 6.86291 3.11102 6.65478 3.45391 6.51281C3.79681 6.37083 4.16431 6.2978 4.53543 6.29787H25.099C25.8482 6.29831 26.5666 6.59619 27.0962 7.12605C27.6259 7.65591 27.9235 8.37439 27.9236 9.12357V29.6866Z" fill="#344549"/>
<path d="M30.6574 1.99327C26.4459 5.63984 22.5822 9.50843 19.319 14.0355C17.8796 16.0326 16.7482 18.2513 15.7025 20.4705C15.2109 21.5151 14.9172 22.6017 14.6411 23.6884C12.6324 21.8213 10.6773 19.9012 8.4723 18.2415C6.90004 17.0586 1.62269 20.768 3.46566 22.156C6.76879 24.641 9.51957 27.7347 12.7297 30.3301C14.0739 31.4146 17.0528 29.0609 17.7506 28.0716C20.048 24.8176 20.3619 20.8369 22.037 17.2861C24.5942 11.8562 29.1283 7.39859 33.6034 3.52124C36.9448 0.629367 32.9078 0.0447575 30.6585 1.99109" fill="#37B34A"/>
</g>
<defs>
<clipPath id="clip0_338_1656">
<rect width="35" height="35" fill="white"/>
</clipPath>
</defs>
</svg>
